<svg width="16" height="16" viewBox="0 0 16 16" fill="none" xmlns="http://www.w3.org/2000/svg">
<path d="M1.18115 14.6953L2.13254 11.2216C1.54576 10.205 1.23704 9.05166 1.23742 7.87018C1.23892 4.17389 4.24695 1.16675 7.94336 1.16675C9.73712 1.16762 11.4207 1.86569 12.687 3.13283C13.9529 4.39996 14.6499 6.0842 14.6493 7.87558C14.6477 11.5716 11.6391 14.5793 7.94336 14.5793C7.94308 14.5793 7.94363 14.5793 7.94336 14.5793H7.94047C6.81827 14.5788 5.71554 14.2973 4.73602 13.7631L1.18115 14.6953Z" fill="white"/>
<path d="M7.94547 2.29907C4.87101 2.29907 2.37076 4.79842 2.36963 7.87049C2.36917 8.92324 2.66379 9.9486 3.22169 10.8358L3.35432 11.0466L2.79111 13.1026L4.90065 12.5494L5.10435 12.6702C5.95991 13.1779 6.94081 13.4464 7.94118 13.4469H7.9433C11.0154 13.4469 13.5156 10.9473 13.5169 7.87501C13.5174 6.3862 12.9383 4.98618 11.8859 3.93306C10.8335 2.87994 9.43428 2.2997 7.94547 2.29907Z" fill="url(#paint0_linear_2684_3732)"/>
<path fill-rule="evenodd" clip-rule="evenodd" d="M6.26711 5.06781C6.14151 4.78886 6.00938 4.78321 5.89007 4.77831C5.79236 4.77417 5.68058 4.77442 5.56892 4.77442C5.45714 4.77442 5.27565 4.81637 5.12218 4.98404C4.96857 5.15171 4.53564 5.55701 4.53564 6.38142C4.53564 7.20583 5.13612 8.00236 5.21976 8.11426C5.30354 8.22604 6.37889 9.97183 8.08209 10.6434C9.49743 11.2015 9.78542 11.0905 10.0928 11.0626C10.4 11.0347 11.0841 10.6573 11.2236 10.2661C11.3633 9.87487 11.3633 9.53965 11.3215 9.46957C11.2795 9.39961 11.1679 9.35779 11.0002 9.27401C10.8326 9.19024 10.0089 8.78482 9.85525 8.72893C9.70165 8.67304 9.58999 8.64516 9.47821 8.81283C9.36656 8.9805 9.04566 9.35779 8.94782 9.46957C8.85011 9.58147 8.7524 9.59542 8.58473 9.51164C8.41718 9.42762 7.8775 9.25091 7.23733 8.68007C6.73922 8.23597 6.403 7.68749 6.30516 7.51982C6.20745 7.35215 6.29474 7.26147 6.37876 7.17795C6.45399 7.10284 6.54631 6.98227 6.6302 6.88443C6.71373 6.78659 6.74173 6.71676 6.7975 6.6051C6.85339 6.4932 6.82551 6.39536 6.78356 6.31158C6.74173 6.22781 6.41606 5.39913 6.26711 5.06781Z" fill="white"/>
<defs>
<linearGradient id="paint0_linear_2684_3732" x1="7.82978" y1="2.96806" x2="7.88632" y2="12.4946" gradientUnits="userSpaceOnUse">
<stop stop-color="#57D163"/>
<stop offset="1" stop-color="#23B33A"/>
</linearGradient>
</defs>
</svg>
